<?xml version="1.0" standalone="no"?>
<!DOCTYPE svg PUBLIC "-//W3C//DTD SVG 20010904//EN"
 "http://www.w3.org/TR/2001/REC-SVG-20010904/DTD/svg10.dtd">
<svg version="1.0" xmlns="http://www.w3.org/2000/svg"
 width="500.000000pt" height="500.000000pt" viewBox="0 0 500.000000 500.000000"
 preserveAspectRatio="xMidYMid meet">
<metadata>
Created by potrace 1.11, written by Peter Selinger 2001-2013
</metadata>
<g transform="translate(0.000000,500.000000) scale(0.100000,-0.100000)"
fill="#000000" stroke="none">
<path d="M3842 4988 c-5 -7 -29 -195 -53 -418 -23 -223 -44 -407 -46 -409 -2
-3 -104 6 -227 19 -186 20 -227 21 -240 11 -24 -20 -20 -58 7 -72 12 -6 23
-13 25 -14 2 -2 -21 -223 -34 -323 l-5 -43 -37 29 c-76 60 -215 145 -324 197
-648 312 -1413 238 -1988 -191 -656 -489 -928 -1334 -680 -2109 309 -962 1325
-1524 2304 -1274 43 11 79 19 81 17 2 -2 -30 -294 -34 -315 -1 -2 -49 -3 -109
-3 -81 0 -113 -4 -130 -16 -24 -17 -29 -43 -10 -62 17 -17 2119 -17 2136 0 18
18 14 56 -7 68 -12 6 -94 10 -196 10 l-176 0 5 43 c3 23 13 107 21 187 9 80
18 162 21 182 7 43 -21 78 -61 78 -30 0 -31 4 -10 185 26 232 22 215 59 215
17 0 37 5 44 12 28 28 1 78 -44 78 -13 0 -24 3 -24 8 0 16 41 388 45 408 4 17
10 20 30 16 29 -5 65 21 65 48 0 20 -19 40 -39 40 -44 1 -45 7 -21 229 l23
211 38 0 c28 0 41 5 49 21 16 30 -11 69 -48 69 l-28 0 23 202 c12 112 22 211
23 221 0 13 6 16 24 11 39 -10 68 12 64 49 -3 28 -8 33 -41 41 -35 9 -37 12
-32 40 3 17 12 96 20 176 25 231 22 220 59 220 37 0 56 15 56 45 0 29 -19 45
-52 45 -15 0 -28 4 -28 10 0 19 31 295 36 318 3 17 11 22 38 22 40 0 60 21 52
54 -8 31 -14 33 -143 47 -59 6 -109 13 -110 13 -2 1 6 83 17 181 11 98 20 182
20 186 0 4 12 9 26 11 36 4 50 42 26 66 -15 15 -61 23 -233 41 -118 12 -219
24 -225 26 -10 3 -3 120 8 131 2 2 217 -19 477 -47 434 -47 474 -50 489 -35
12 12 23 86 48 323 39 368 39 360 16 372 -18 10 -927 111 -995 111 -19 0 -39
-6 -45 -12z m537 -146 c7 -14 6 -25 -4 -39 -18 -26 -10 -34 27 -26 20 4 33 1
38 -8 12 -18 -7 -49 -29 -49 -13 0 -22 -13 -31 -45 -7 -25 -11 -48 -8 -50 3
-3 25 -2 51 1 33 5 47 12 50 25 3 13 14 19 31 19 20 0 26 -5 26 -23 0 -13 -5
-28 -11 -34 -18 -18 -2 -35 20 -21 24 15 51 4 51 -22 0 -26 -27 -37 -52 -21
-25 16 -41 5 -26 -18 16 -26 3 -51 -26 -51 -19 0 -27 7 -32 24 -6 24 -41 46
-74 46 -16 0 -20 -7 -20 -37 0 -43 7 -57 33 -66 21 -8 23 -46 1 -54 -8 -3 -26
0 -40 7 -30 16 -39 9 -24 -20 14 -27 -4 -52 -34 -48 -26 4 -34 38 -13 53 9 7
12 16 8 24 -7 10 -12 10 -29 0 -19 -12 -24 -11 -38 3 -21 21 -12 45 20 58 13
5 27 17 29 27 3 10 8 28 12 41 6 21 3 22 -42 22 -40 0 -50 -4 -58 -22 -12 -27
-43 -30 -58 -6 -9 13 -7 21 6 36 22 24 13 32 -27 25 -35 -5 -51 12 -40 42 8
20 50 19 58 -1 10 -25 21 -7 21 34 0 33 3 37 25 37 17 0 26 -7 30 -25 4 -18
16 -27 50 -37 24 -7 46 -11 48 -8 2 2 1 24 -2 49 -5 33 -13 47 -27 51 -15 5
-19 14 -17 33 4 31 36 42 53 19 7 -9 16 -12 24 -8 10 7 10 12 0 29 -10 17 -10
23 0 36 18 21 38 20 50 -2z m-831 -757 c1 -1 -4 -56 -11 -121 -8 -65 -12 -125
-9 -132 9 -26 39 -33 61 -14 17 14 23 38 33 137 7 66 18 120 23 120 6 0 72 -6
147 -14 131 -13 137 -15 133 -35 -10 -52 -26 -227 -20 -236 3 -5 15 -15 25
-20 15 -8 24 -6 39 9 14 14 21 45 31 139 l13 121 26 -4 c14 -2 47 -7 74 -10
35 -5 47 -10 47 -23 0 -28 -39 -354 -42 -358 -4 -3 -279 24 -313 31 -18 4 -20
12 -20 77 0 69 -1 73 -23 76 -36 5 -51 -15 -58 -79 -5 -45 -10 -59 -23 -59
-25 0 -316 32 -319 35 -3 3 24 271 34 338 l6 39 72 -7 c39 -4 72 -8 74 -10z
m-1268 -60 c98 -26 259 -107 344 -175 141 -112 259 -294 308 -475 31 -115 30
-336 0 -450 -86 -317 -323 -557 -637 -646 -42 -12 -129 -24 -220 -30 -237 -15
-367 -53 -520 -153 -190 -124 -327 -313 -387 -534 -31 -112 -30 -334 1 -447
85 -312 332 -562 644 -650 l52 -15 -60 6 c-246 24 -532 133 -776 296 -151 100
-358 301 -462 448 -136 194 -245 444 -299 690 -20 94 -22 132 -22 355 0 223 2
261 22 355 36 165 87 307 162 456 179 355 456 629 818 809 168 83 344 139 522
164 41 6 86 13 100 15 63 11 347 -2 410 -19z m1470 -431 c294 -32 536 -58 537
-58 3 -2 -36 -348 -39 -351 -2 -2 -27 0 -55 2 -40 4 -53 9 -53 22 1 9 7 65 14
125 12 102 11 111 -6 128 -22 22 -32 23 -51 3 -15 -14 -21 -46 -32 -160 -11
-107 -8 -103 -67 -97 -29 2 -55 6 -57 8 -1 1 3 59 10 128 13 133 9 156 -31
156 -30 0 -42 -27 -51 -117 -17 -162 -13 -153 -70 -153 -35 0 -51 4 -55 15 -4
9 -1 67 6 130 13 123 9 145 -31 145 -28 0 -46 -38 -53 -110 -4 -36 -9 -87 -13
-114 l-6 -48 -55 5 c-30 3 -55 7 -57 9 -1 2 4 57 11 122 14 131 9 156 -31 156
-34 0 -41 -19 -56 -153 l-12 -119 -56 7 c-31 4 -57 8 -59 9 -1 2 4 57 12 122
7 68 10 126 5 135 -13 25 -36 30 -58 11 -17 -14 -23 -39 -33 -137 l-13 -120
-55 3 c-30 2 -55 5 -56 5 -1 1 7 74 17 162 10 88 18 168 19 178 0 13 6 16 23
12 12 -2 263 -30 557 -61z m-50 -440 c294 -32 536 -58 538 -59 4 -3 -36 -378
-44 -414 -5 -22 -9 -23 -55 -19 -27 3 -51 7 -53 9 -3 2 2 57 9 123 16 130 11
156 -30 156 -35 0 -43 -22 -56 -155 l-12 -117 -55 5 c-30 3 -56 8 -58 10 -3 2
0 46 7 98 6 52 9 112 7 134 -3 35 -7 40 -29 43 -14 2 -31 -3 -37 -11 -6 -7
-16 -58 -22 -113 -17 -157 -12 -147 -73 -139 -29 4 -53 9 -55 10 -2 2 2 60 9
130 12 121 12 128 -6 141 -23 17 -27 17 -48 2 -13 -10 -21 -43 -32 -137 -8
-68 -16 -125 -18 -127 -2 -2 -27 -1 -56 3 l-54 6 6 72 c4 40 9 97 13 127 5 43
3 58 -11 71 -20 21 -26 21 -50 3 -14 -10 -21 -37 -31 -122 -7 -60 -13 -116
-14 -125 0 -13 -10 -15 -57 -11 -32 2 -59 5 -60 6 -1 0 5 55 13 121 15 132 13
151 -18 161 -38 12 -55 -21 -67 -134 -6 -56 -11 -109 -11 -117 0 -22 -98 -21
-106 0 -4 9 4 110 16 225 22 202 24 209 44 205 12 -2 262 -30 556 -61z m-76
-524 c302 -32 551 -61 553 -64 3 -2 -6 -102 -18 -221 l-23 -217 -36 6 c-19 3
-44 6 -56 6 -20 0 -20 1 -6 126 13 117 13 127 -4 145 -21 24 -29 24 -52 1 -14
-14 -22 -48 -31 -140 l-13 -122 -57 6 c-31 4 -57 7 -58 8 -1 1 5 57 12 126 13
112 13 126 -2 142 -44 49 -69 8 -84 -138 l-12 -121 -51 5 c-28 2 -54 8 -59 11
-4 4 -1 60 6 125 11 99 11 120 0 136 -16 23 -46 26 -61 7 -6 -7 -17 -67 -24
-132 l-13 -120 -45 -3 c-73 -4 -73 -2 -59 136 13 129 8 152 -31 152 -38 0 -41
-12 -70 -269 0 -5 -102 7 -108 14 -3 2 1 59 8 125 13 132 9 150 -36 150 -33 0
-40 -22 -54 -155 -6 -60 -13 -111 -15 -113 -9 -9 -105 11 -105 21 0 22 42 402
46 415 2 6 5 12 7 12 2 0 250 -27 551 -60z m-44 -526 c294 -32 537 -59 539
-61 3 -2 -6 -101 -18 -221 l-24 -217 -46 3 c-25 2 -50 8 -55 12 -5 5 -3 61 4
129 10 97 10 123 0 136 -16 19 -44 19 -60 0 -9 -11 -35 -174 -40 -247 0 -9
-65 -10 -95 -2 -21 5 -21 7 -7 130 15 136 11 154 -34 154 -33 0 -40 -22 -54
-155 -6 -60 -13 -111 -15 -114 -2 -2 -29 0 -60 4 l-55 6 5 37 c20 141 24 205
14 223 -11 21 -51 25 -67 7 -6 -7 -16 -68 -23 -136 l-12 -123 -56 7 c-31 3
-57 7 -58 9 -2 1 3 57 10 125 13 116 13 124 -5 142 -42 42 -65 7 -78 -117 -17
-156 -12 -145 -73 -138 -28 3 -54 7 -56 9 -1 1 3 60 10 130 12 120 12 127 -6
140 -23 17 -27 17 -48 2 -13 -10 -21 -44 -32 -138 -8 -69 -15 -125 -15 -125
-28 0 -110 8 -110 11 0 12 41 375 46 402 3 21 11 32 22 32 9 0 258 -25 552
-56z m-1400 -784 l0 -391 58 3 57 3 3 129 c1 75 7 135 14 143 17 21 65 16 82
-9 13 -18 16 -54 16 -180 0 -145 -2 -160 -20 -178 -19 -19 -33 -20 -267 -20
-215 0 -249 2 -265 17 -22 20 -23 56 -2 77 12 12 38 16 115 16 l99 0 0 335 0
335 -97 0 c-76 0 -100 4 -115 17 -24 21 -23 48 2 73 18 18 33 20 170 20 l150
0 0 -390z m1370 254 c283 -30 515 -56 516 -57 4 -4 -46 -430 -50 -435 -3 -2
-28 -1 -56 3 l-51 7 8 72 c4 39 8 100 8 136 0 62 -1 65 -26 68 -14 2 -31 -3
-37 -11 -6 -7 -16 -58 -22 -113 -17 -156 -12 -146 -73 -138 -28 4 -54 8 -56
10 -1 1 3 60 10 130 12 120 12 127 -6 140 -23 17 -27 17 -49 1 -14 -11 -21
-40 -32 -136 -7 -68 -15 -125 -16 -126 -2 -1 -28 0 -58 2 l-56 5 13 117 c15
132 12 157 -19 167 -39 12 -54 -22 -67 -153 l-13 -119 -54 6 c-29 3 -55 8 -58
10 -2 3 2 58 9 123 8 65 12 124 8 132 -9 24 -54 31 -69 11 -6 -9 -18 -71 -25
-138 l-12 -120 -54 4 c-29 3 -55 7 -58 10 -3 3 1 59 9 124 8 74 10 126 4 137
-10 20 -51 23 -67 3 -6 -7 -17 -67 -24 -132 l-12 -119 -54 2 c-30 2 -55 4 -56
5 -1 2 8 98 21 213 13 116 24 214 24 218 0 5 19 6 43 2 23 -3 274 -30 557 -61z
m-78 -522 c290 -32 530 -60 533 -63 3 -3 -5 -95 -17 -203 l-22 -198 -49 6
c-27 3 -52 8 -55 11 -3 2 1 59 8 125 13 132 9 150 -36 150 -33 0 -40 -22 -54
-155 -6 -60 -13 -111 -15 -113 -2 -2 -28 -1 -59 3 -53 7 -55 8 -51 34 12 66
25 223 20 232 -4 5 -15 14 -25 19 -15 8 -24 6 -39 -9 -14 -14 -21 -45 -31
-140 l-13 -121 -56 6 c-31 4 -57 8 -59 9 -1 1 4 56 12 121 7 68 10 126 5 135
-18 36 -65 33 -75 -5 -2 -11 -10 -70 -17 -131 l-12 -110 -55 4 c-30 1 -56 4
-58 6 -2 1 3 59 9 128 14 133 9 157 -31 157 -30 0 -41 -25 -51 -127 -15 -149
-12 -143 -62 -143 -71 0 -71 1 -57 139 14 129 9 151 -31 151 -29 0 -46 -39
-53 -120 -4 -41 -10 -92 -13 -114 l-6 -38 -49 4 c-26 3 -51 8 -54 11 -3 3 4
86 15 186 12 100 21 188 21 196 0 10 10 15 28 15 15 -1 264 -27 554 -58z m-59
-491 c345 -38 630 -71 634 -74 5 -5 -17 -249 -33 -364 l-6 -43 -74 0 -74 0 1
63 c1 73 -9 103 -51 150 -62 71 -170 86 -249 34 -55 -36 -82 -86 -94 -173
l-11 -74 -113 0 c-112 0 -113 0 -109 23 25 121 13 198 -40 257 -32 36 -103 70
-143 70 -38 0 -94 -24 -128 -53 -47 -42 -70 -95 -78 -187 -10 -116 -5 -110
-92 -110 l-75 0 6 37 c5 35 56 493 56 507 0 10 24 8 673 -63z m-1506 -117 c-3
-3 -12 -4 -19 -1 -8 3 -5 6 6 6 11 1 17 -2 13 -5z m1199 -123 c45 -28 57 -64
47 -152 l-8 -74 -111 -3 -110 -3 9 83 c12 106 19 124 59 148 41 25 74 25 114
1z m621 -71 c36 -22 50 -60 45 -121 l-4 -39 -110 0 -111 0 7 50 c4 28 12 62
18 76 24 52 99 69 155 34z"/>
<path d="M1834 3750 c-11 -4 -33 -22 -47 -40 l-27 -32 0 -366 c0 -349 1 -369
20 -400 11 -18 32 -37 46 -42 33 -13 415 -13 448 0 14 5 35 24 46 42 19 31 20
51 20 396 0 398 -1 407 -60 437 -23 12 -69 15 -227 14 -109 0 -207 -4 -219 -9z
m386 -440 l0 -330 -170 0 -170 0 0 330 0 330 170 0 170 0 0 -330z"/>
</g>
</svg>
